<svg width="20" height="20" viewBox="0 0 20 20" fill="none" xmlns="http://www.w3.org/2000/svg">
<path fill-rule="evenodd" d="M14.022 16.2097C14.2501 16.3619 14.544 16.4 14.8061 16.3065C15.0682 16.2123 15.2608 16.0013 15.3189 15.7455C15.9344 13.018 17.4276 6.11432 17.9879 3.63323C18.0304 3.44623 17.9595 3.25188 17.8037 3.12699C17.6479 3.0021 17.4318 2.96604 17.2392 3.03349C14.2692 4.07001 5.12269 7.30578 1.38419 8.6101C1.1469 8.69292 0.99249 8.90797 1.00028 9.14372C1.00878 9.38015 1.17736 9.58518 1.42031 9.65397C3.0969 10.1268 5.29764 10.7847 5.29764 10.7847C5.29764 10.7847 6.32612 13.7132 6.86232 15.2025C6.92961 15.3895 7.08473 15.5365 7.28943 15.5872C7.49343 15.6373 7.71159 15.5845 7.86388 15.449C8.72519 14.6823 10.0568 13.4968 10.0568 13.4968C10.0568 13.4968 12.5869 15.2459 14.022 16.2097ZM6.22341 10.4147L7.41268 14.1133L7.67688 11.7711C7.67688 11.7711 12.2717 7.86344 14.8911 5.63613C14.9676 5.57068 14.9782 5.46116 14.9145 5.38435C14.8514 5.30755 14.7353 5.28952 14.6481 5.34161C11.6123 7.16954 6.22341 10.4147 6.22341 10.4147Z"/>
</svg>
