<svg width="20" height="20" viewBox="0 0 20 20" xmlns="http://www.w3.org/2000/svg">
<path d="M16.132 5.42183C16.0152 5.36602 15.9015 5.30483 15.7913 5.23851C15.4709 5.04267 15.1771 4.81191 14.9163 4.55121C14.2637 3.86091 14.02 3.16061 13.9302 2.6703H13.9338C13.8588 2.26332 13.8898 2 13.8945 2H10.9222V12.6255C10.9222 12.7681 10.9222 12.9091 10.9157 13.0484C10.9157 13.0658 10.9139 13.0818 10.9128 13.1004C10.9128 13.1081 10.9128 13.1161 10.911 13.1241C10.911 13.1261 10.911 13.1281 10.911 13.1301C10.8797 13.5114 10.7475 13.8796 10.5261 14.2026C10.3047 14.5255 10.0008 14.7931 9.64121 14.982C9.26644 15.1791 8.84258 15.2825 8.41141 15.282C7.02657 15.282 5.9042 14.2381 5.9042 12.9488C5.9042 11.6595 7.02657 10.6156 8.41141 10.6156C8.67355 10.6153 8.93408 10.6535 9.18332 10.7286L9.18693 7.9307C8.43028 7.84035 7.66159 7.89594 6.92935 8.09398C6.19711 8.29201 5.51721 8.62819 4.93254 9.08131C4.42024 9.49283 3.98954 9.98383 3.65983 10.5322C3.53436 10.7322 3.06097 11.5359 3.00365 12.8401C2.96759 13.5804 3.20807 14.3474 3.32272 14.6644V14.671C3.39483 14.8577 3.67425 15.4947 4.12962 16.0316C4.4968 16.4624 4.93063 16.8407 5.41711 17.1546V17.1479L5.42432 17.1546C6.86324 18.0585 8.45864 17.9992 8.45864 17.9992C8.73481 17.9889 9.65996 17.9992 10.7106 17.5389C11.8758 17.0286 12.5392 16.2683 12.5392 16.2683C12.9631 15.814 13.3001 15.2963 13.5358 14.7374C13.8047 14.0837 13.8945 13.2998 13.8945 12.9865V7.3494C13.9306 7.3694 14.4108 7.66305 14.4108 7.66305C14.4108 7.66305 15.1027 8.07303 16.1822 8.34002C16.9566 8.53001 18 8.57001 18 8.57001V5.84214C17.6344 5.87881 16.8921 5.77215 16.132 5.42183Z" fill="url(#paint0_linear_403_49)"/>
<defs>
<linearGradient id="paint0_linear_403_49" x1="3.58324" y1="7.04645" x2="8.83764" y2="6.9687" gradientUnits="userSpaceOnUse">
<stop stop-color="#FFDD64"/>
<stop offset="1" stop-color="#CA9D00"/>
</linearGradient>
</defs>
</svg>
