<svg height="20" viewBox="0 0 20 20" width="20" xmlns="http://www.w3.org/2000/svg"><title>Viber</title><path d="m16.258 3.65667c-.4223-.37787-2.1116-1.62262-5.9126-1.64485 0 0-4.46772-.26673-6.64603 1.73376-1.22252 1.22252-1.64485 2.97851-1.68931 5.17905-.04445 2.20057-.11113 6.31267 3.86762 7.44627v1.7115s-.02223.6891.42233.8224c.45164.1446.74177-.1808 1.12099-.606.08737-.098.17946-.2012.27935-.3053.28896-.3112.68905-.7557.97801-1.1114 2.71174.2223 4.80114-.2889 5.04564-.3778.0488-.0157.1171-.033.2015-.0544h.0001c.8769-.2224 3.4887-.8847 3.955-4.6357.5335-4.26769-.2223-6.95724-1.6226-8.15753zm.4668 7.82413c-.385 3.1405-2.506 3.603-3.2318 3.7613h-.0001c-.0704.0154-.1277.0278-.169.0396-.2.0667-2.0227.5113-4.33435.3779 0 0-1.71153 2.0672-2.26722 2.6229-.08891.0889-.17782.1111-.24451.1111-.08891-.0222-.11113-.1334-.11113-.289 0-.2222.02223-2.8451.02223-2.8451-3.21728-.8949-3.16681-4.1589-3.13752-6.05276v-.00003-.00004-.00006c.00127-.08184.00249-.16111.00341-.23753.04446-1.8449.37788-3.33415 1.40035-4.35663 1.8449-1.66707 5.64584-1.42256 5.64584-1.42256 3.2008.02222 4.7345.97801 5.0901 1.31143 1.1559 1.02247 1.756 3.44529 1.3337 6.97948zm-6.3273-3.9905c.0064-.11811.1073-.20867.2254-.20229.4471.02417.8166.15932 1.0791.43211.2613.27152.3886.6502.4124 1.1042.0063.11811-.0844.2189-.2026.22512-.1181.00622-.2189-.0845-.2251-.20261-.0205-.39069-.1267-.65663-.2933-.82968-.1653-.17179-.4183-.28115-.7936-.30144-.1181-.00638-.2087-.1073-.2023-.22541zm-.0574-1.35758c-.1179-.00931-.221.07873-.2304.19665-.0093.11791.0788.22104.1967.23035.8027.06337 1.4145.33491 1.8594.82019.4264.46714.6538 1.07874.633 1.80544-.0034.11823.0897.21682.208.2202.1182.00337.2168-.08973.2202-.20796.0237-.82922-.238-1.55128-.745-2.10663l-.0003-.00031c-.5331-.58159-1.2551-.88794-2.1416-.95793zm-.6529-.87576c0-.11828.09589-.21417.21417-.21417 1.25303 0 2.30773.41975 3.15013 1.23872.8485.82495 1.2875 1.95093 1.2875 3.35446 0 .11828-.0959.21417-.2142.21417s-.2142-.09589-.2142-.21417c0-1.30834-.4057-2.3163-1.1577-3.04735-.758-.73702-1.7038-1.1175-2.85153-1.1175-.11828 0-.21417-.09588-.21417-.21416zm1.4351 6.26824c-.1555.2-.4667.1778-.4667.1778-2.20057-.5779-2.75627-2.77848-2.75627-2.77848s-.02222-.31118.17783-.46678l.40009-.31118c.17783-.1556.31119-.53347.11114-.88911-.04965-.07448-.11162-.17052-.17789-.27322-.11173-.17315-.23567-.36522-.33334-.50475-.17782-.2445-.57792-.73351-.57792-.73351-.20005-.24451-.48901-.28897-.8002-.13337-.28896.17782-.55569.4001-.8002.66683-.20004.22227-.31118.44455-.33341.66683v.08891c0 .11113.02223.20003.04445.28893l.00001.00003c.08891.35564.33341.91133.84465 1.84489.33341.60015.68905 1.11138 1.02247 1.53368.17782.2223.37787.4446.62238.6891l.08891.0889c.22227.2445.46678.4446.68906.6224.42232.3334.93356.689 1.53374 1.0225.9558.5112 1.5114.7557 1.8449.8446.0889.0222.2.0445.2889.0445h.0889c.2223-.0445.4446-.1334.6669-.3335.2889-.2445.5112-.5112.6668-.8002.1556-.3111.1111-.6001-.1334-.8002 0 0-.489-.4001-.7335-.5779-.2223-.1778-.5779-.4001-.778-.5112-.3778-.2001-.7335-.0667-.8891.1334z"/></svg>
