<svg width="90" height="90" viewBox="0 0 90 90" fill="none" xmlns="http://www.w3.org/2000/svg">
<path fill-rule="evenodd" clip-rule="evenodd" d="M45 90C69.8528 90 90 69.8528 90 45C90 20.1472 69.8528 0 45 0C20.1472 0 0 20.1472 0 45C0 69.8528 20.1472 90 45 90ZM45 89.2125C69.4179 89.2125 89.2125 69.4179 89.2125 45C89.2125 20.5821 69.4179 0.7875 45 0.7875C20.5821 0.7875 0.7875 20.5821 0.7875 45C0.7875 69.4179 20.5821 89.2125 45 89.2125Z" fill="url(#paint0_linear_201_22)"/>
<path fill-rule="evenodd" clip-rule="evenodd" d="M44.9437 77.2875C62.8067 77.2875 77.2875 62.8067 77.2875 44.9437C77.2875 27.0808 62.8067 12.6 44.9437 12.6C27.0808 12.6 12.6 27.0808 12.6 44.9437C12.6 62.8067 27.0808 77.2875 44.9437 77.2875ZM44.9437 76.5C62.3718 76.5 76.5 62.3718 76.5 44.9437C76.5 27.5157 62.3718 13.3875 44.9437 13.3875C27.5157 13.3875 13.3875 27.5157 13.3875 44.9437C13.3875 62.3718 27.5157 76.5 44.9437 76.5Z" fill="url(#paint1_linear_201_22)"/>
<path d="M70.7284 33.2296L71.0979 34.1038C69.2193 35.0565 67.0814 36.0443 64.6839 37.0673L64.016 37.3516C64.0989 36.7398 64.1773 35.9979 64.2511 35.1257C64.3137 34.4277 64.3702 33.8083 64.4209 33.2673C64.4989 32.5166 64.5298 31.9068 64.5134 31.4377C64.4763 30.3779 63.9545 29.8657 62.9476 29.9008C61.3159 29.9578 59.4143 30.746 57.2427 32.2656C54.3243 34.2982 52.9094 36.5826 52.998 39.1191C53.0301 40.0399 53.442 40.6342 54.2334 40.9023C55.0416 41.1524 56.7389 41.2323 59.3254 41.1419L59.6639 41.1301C59.6966 40.5723 59.7093 40.1893 59.702 39.9808C59.6504 38.5041 59.397 37.2171 58.9415 36.1198C60.692 36.4762 61.6132 37.9746 61.7055 40.6152L61.7209 41.0582L65.8062 40.8373C67.6983 40.7712 69.0398 40.8636 69.8307 41.1142C72.4492 41.9446 73.8086 43.7931 73.9087 46.6596C74.0433 50.5162 72.7318 54.267 69.974 57.9115C66.6844 62.2531 62.566 64.5102 57.6187 64.683C53.9907 64.8097 51.1794 63.4381 49.1848 60.5682C44.9745 63.4286 40.4651 64.9429 35.6567 65.1107C31.9592 65.2399 28.5625 64.5236 25.4665 62.9619C19.4331 59.9025 16.2788 54.4294 16.0034 46.5423C15.8285 41.5389 17.0134 37.3926 19.5576 34.1034C22.1019 30.8141 25.4397 29.0973 29.5711 28.953C33.581 28.813 37.0806 29.9866 40.0699 32.4739C41.734 33.842 43.0968 35.5426 44.1585 37.5753C45.2196 39.5908 46.4625 42.8347 47.8874 47.3074L49.3532 51.9525C50.1534 54.4639 50.8627 56.3613 51.4811 57.6441C53.1638 56.5591 54.8174 54.6403 56.4419 51.8876C58.0837 49.1341 59.0645 46.6127 59.3844 44.3229L58.1875 44.3908C55.2886 44.4921 53.2321 44.329 52.018 43.9018C50.8205 43.4566 50.2012 42.6433 50.1599 41.462C50.0932 39.5509 51.0673 37.334 53.0822 34.8112C54.6974 32.7892 56.6314 31.1824 58.8838 29.9906C61.1358 28.7813 64.0648 27.8007 67.671 27.0486L68.5507 26.8613L68.4873 27.281C68.3409 28.0687 68.2263 28.7685 68.1434 29.3803L67.8124 31.8442C67.7181 32.6303 67.6749 33.1362 67.6829 33.3621C67.7005 33.8659 67.9176 34.1104 68.3342 34.0959C68.6293 34.0857 68.9309 34.0143 69.2391 33.8817C69.9238 33.5796 70.4202 33.3621 70.7284 33.2296ZM61.3614 44.2017C60.8735 46.6539 59.7386 49.2416 57.9566 51.9651C56.1747 54.6886 54.1666 56.9068 51.9322 58.6198C52.8465 60.4143 53.8289 61.6671 54.8791 62.3783C55.9287 63.0722 57.2781 63.3904 58.9272 63.3328C62.2774 63.2158 65.1889 61.7313 67.6615 58.8794C70.1515 56.0268 71.334 52.8112 71.209 49.2325C71.1387 47.2173 70.526 45.8471 69.371 45.1222C68.2327 44.3792 66.2141 44.0583 63.3152 44.1595L62.0133 44.205L61.3614 44.2017ZM48.7094 59.6456C47.8118 57.8332 47.1379 56.2043 46.6877 54.7589L44.3372 47.1705C42.4752 41.1302 40.3332 36.7784 37.9113 34.1147C35.4887 31.4337 32.5415 30.1538 29.0698 30.2751C25.4418 30.4018 22.6461 31.7169 20.6827 34.2206C18.7366 36.7237 17.8389 40.1294 17.9893 44.4378C18.0676 46.6788 18.5547 48.9318 19.4507 51.1964C20.364 53.4605 21.5531 55.4105 23.0179 57.0466C24.8625 59.1042 27.064 60.6797 29.6223 61.7732C32.1805 62.8666 34.8397 63.3652 37.5997 63.2688C41.2972 63.1396 45.0003 61.9319 48.7094 59.6456Z" fill="url(#paint2_linear_201_22)"/>
<path d="M36.3807 78.0192L35.3724 81.4768L34.3234 81.1708C32.9175 80.7607 32.0687 81.2263 31.6622 82.6209L31.5143 83.1279C31.111 84.5112 31.573 85.3713 32.979 85.7814L34.9499 86.3559L37.3026 78.2881L36.3807 78.0192ZM34.27 85.2574L33.221 84.9513C32.4257 84.7196 32.1858 84.2993 32.4377 83.4351L32.6026 82.87C32.858 81.994 33.2897 81.7573 34.0849 81.9891L35.1336 82.2951L34.27 85.2574Z" fill="url(#paint3_linear_201_22)"/>
<path d="M25.7426 74.2667L28.2606 75.7182L26.7432 78.3501L24.6831 77.1627L24.257 77.9015L26.3172 79.0887L24.9257 81.5027L22.4077 80.0511L21.9762 80.8001L25.3262 82.7314L29.5246 75.449L26.1746 73.5176L25.7426 74.2667Z" fill="url(#paint4_linear_201_22)"/>
<path d="M22.2192 70.4015L19.6287 73.1094L18.9519 72.4616C18.2485 71.7891 18.2206 71.2799 18.8931 70.577L19.8147 69.6135C20.2297 69.1795 20.3699 68.9809 20.4834 68.7407L19.7804 68.0682C19.6428 68.3686 19.4026 68.6545 19.1288 68.9407L18.2401 69.8694C17.4929 70.6506 17.321 71.3167 17.7777 72.0034L17.761 72.0208C17.0392 71.6457 16.389 71.8216 15.7084 72.5334L15.4507 72.8022C14.5125 73.783 14.5496 74.6996 15.6174 75.721L17.1016 77.1408L22.9137 71.0656L22.2192 70.4015ZM17.0049 75.8517L16.2238 75.1044C15.6163 74.5231 15.6135 74.0222 16.228 73.38L16.5188 73.0762C17.1331 72.434 17.6941 72.4556 18.354 73.0864L19.0308 73.7342L17.0049 75.8517Z" fill="url(#paint5_linear_201_22)"/>
<path d="M16.6758 64.0116L13.4739 66.0707L12.2529 64.1719L11.5256 64.6396L12.7469 66.5384L10.333 68.0908L8.82617 65.7477L8.09912 66.2154L10.1256 69.3663L17.1954 64.8197L16.6758 64.0116Z" fill="url(#paint6_linear_201_22)"/>
<path d="M12.1238 54.3446L11.3084 54.6319L12.2742 57.3731L9.40847 58.3828L8.61846 56.1401L7.8143 56.4235L8.60432 58.6662L5.97671 59.592L5.01087 56.8512L4.19502 57.1385L5.48033 60.7858L13.4091 57.9918L12.1238 54.3446Z" fill="url(#paint7_linear_201_22)"/>
<path d="M4.94222 51.1181L9.2429 50.6865C10.593 50.551 11.3165 49.7058 11.1835 48.3797C11.0476 47.0301 10.1716 46.3579 8.8219 46.4933L7.85428 46.5906L7.94661 47.5106L8.94997 47.4096C9.78632 47.3255 10.2608 47.7245 10.3326 48.4414C10.4034 49.1461 10.0191 49.6431 9.18276 49.727L4.7986 50.1675C3.97427 50.2503 3.49875 49.8395 3.42801 49.1344C3.35582 48.4176 3.74182 47.9325 4.56579 47.8497L5.33034 47.773L5.23799 46.8532L4.52121 46.9253C3.15948 47.0619 2.44659 47.8936 2.58209 49.2437C2.71548 50.5698 3.58047 51.255 4.94222 51.1181Z" fill="url(#paint8_linear_201_22)"/>
<path d="M3.69056 39.6966L11.158 40.7347L11.2899 39.7834L3.82286 38.7453L4.0592 37.045L3.20302 36.9261L2.59806 41.2781L3.45422 41.397L3.69056 39.6966Z" fill="url(#paint9_linear_201_22)"/>
<path d="M15.2418 28.3014L12.1539 26.4458L12.7168 25.5089C13.4714 24.2533 13.2375 23.314 11.9918 22.5654L11.539 22.2933C10.304 21.5511 9.35436 21.7789 8.59974 23.0349L7.5419 24.795L14.7472 29.125L15.2418 28.3014ZM11.9862 25.07L11.4234 26.0064L8.77768 24.4168L9.34092 23.48C9.76759 22.7699 10.2353 22.6447 11.0073 23.1085L11.5114 23.4117C12.2937 23.8818 12.4129 24.3596 11.9862 25.07Z" fill="url(#paint10_linear_201_22)"/>
<path d="M22.1839 19.5674L21.5683 18.9606L19.5293 21.0303L17.3656 18.8988L19.0336 17.2055L18.4266 16.6076L16.7584 18.3008L14.7744 16.3461L16.8133 14.2768L16.1978 13.6701L13.4848 16.4236L19.4709 22.3209L22.1839 19.5674Z" fill="url(#paint11_linear_201_22)"/>
<path d="M26.198 16.5233L24.2319 13.3343L25.029 12.8425C25.8569 12.3324 26.3565 12.4332 26.867 13.2611L27.5664 14.3956C27.8817 14.9068 28.0384 15.0922 28.2422 15.2628L29.07 14.7522C28.8143 14.5435 28.5984 14.2392 28.3904 13.9017L27.7161 12.8081C27.149 11.8883 26.5479 11.5536 25.7685 11.8225L25.7558 11.802C26.3006 11.1981 26.2945 10.5248 25.7777 9.68666L25.5824 9.37003C24.8701 8.21489 23.9741 8.01961 22.7167 8.79476L20.969 9.87243L25.3803 17.0274L26.198 16.5233ZM22.2405 10.1042L23.1604 9.53703C23.8756 9.09584 24.3611 9.22002 24.8277 9.97608L25.0481 10.3341C25.5144 11.0905 25.3521 11.6279 24.5752 12.1066L23.778 12.5984L22.2405 10.1042Z" fill="url(#paint12_linear_201_22)"/>
<path d="M34.5833 3.75428L35.0265 10.6373L31.7235 4.58215L30.3745 4.97274L32.7117 13.0448L33.5421 12.8046L31.5785 6.02384L35.0757 12.3603L35.848 12.1366L35.4186 4.91223L37.3817 11.6927L38.2814 11.4323L35.944 3.36017L34.5833 3.75428Z" fill="url(#paint13_linear_201_22)"/>
<path d="M43.8546 2.50545L42.2013 10.9387L43.1138 10.9243L43.4449 9.12946L45.7265 9.09268L46.1274 10.8758L47.112 10.8599L45.1637 2.48423L43.8546 2.50545ZM45.5326 8.25489L43.6115 8.28604L44.4848 3.58805L45.5326 8.25489Z" fill="url(#paint14_linear_201_22)"/>
<path d="M55.3707 12.4268L57.3905 4.26554L56.5397 4.05502L55.0505 10.0709L54.3013 3.50099L53.0887 3.20097L51.0686 11.3618L51.9316 11.5752L53.5993 4.8369L54.4031 12.1872L55.3707 12.4268Z" fill="url(#paint15_linear_201_22)"/>
<path d="M63.1779 15.0491L60.6094 13.6912L62.0288 11.006L64.1303 12.1168L64.5286 11.3633L62.4271 10.2524L63.7291 7.79L66.2976 9.14783L66.7017 8.38366L63.2841 6.57685L59.3562 14.0065L62.7739 15.8132L63.1779 15.0491Z" fill="url(#paint16_linear_201_22)"/>
<path d="M74.3652 14.2379L70.2295 18.8503L72.649 12.6989L71.7195 11.865L66.1085 18.1222L66.7701 18.7155L71.403 13.5487L68.6649 20.4147L69.4069 21.0802L75.018 14.8231L74.3652 14.2379Z" fill="url(#paint17_linear_201_22)"/>
<path d="M73.0187 25.5485L73.5561 26.3446L79.805 22.1266L80.7652 23.5493L81.4817 23.066L79.0235 19.424L78.3071 19.9077L79.2676 21.3307L73.0187 25.5485Z" fill="url(#paint18_linear_201_22)"/>
<path d="M78.2969 37.3175L85.259 36.1506L78.5608 38.8925L78.6934 39.6857L85.92 40.0937L78.9577 41.2608L79.1122 42.1842L87.4009 40.7952L87.1667 39.3977L80.2781 39.0429L86.6746 36.4612L86.4425 35.0758L78.1539 36.4652L78.2969 37.3175Z" fill="url(#paint19_linear_201_22)"/>
<path d="M79.0773 47.03L80.82 47.5726L80.5848 49.8426L78.7663 50.0283L78.6647 51.0079L87.2137 50.0708L87.3489 48.7689L79.1714 46.1222L79.0773 47.03ZM81.6376 47.8387L86.1987 49.2652L81.4395 49.7499L81.6376 47.8387Z" fill="url(#paint20_linear_201_22)"/>
<path d="M77.3795 55.7965L79.9904 56.7663L81.0433 58.2073L76.4599 58.2727L76.1005 59.2407L81.7251 59.165L83.9915 62.1323L84.3425 61.1869L81.3072 57.2552L85.2577 58.7221L85.592 57.8216L77.7139 54.8962L77.3795 55.7965Z" fill="url(#paint21_linear_201_22)"/>
<path d="M71.9745 65.9737L72.6882 66.462L74.3297 64.0636L76.8374 65.7794L75.494 67.742L76.198 68.2235L77.5411 66.2609L79.8404 67.8346L78.1991 70.2333L78.9127 70.7215L81.0966 67.53L74.1584 62.7821L71.9745 65.9737Z" fill="url(#paint22_linear_201_22)"/>
<path d="M71.6565 71.1381L69.6599 73.0292L70.2048 73.6045L72.2014 71.7134L71.6565 71.1381Z" fill="url(#paint23_linear_201_22)"/>
<path d="M62.2984 74.257C61.1001 74.9674 60.8698 76.0394 61.5867 77.2483L64.8082 82.6829L65.6142 82.205L62.3618 76.7187C61.9146 75.9647 62.0678 75.3991 62.729 75.007C63.38 74.621 63.9499 74.7579 64.3971 75.5122L67.6495 80.9985L68.4759 80.5085L65.2544 75.0739C64.5436 73.8753 63.497 73.5466 62.2984 74.257Z" fill="url(#paint24_linear_201_22)"/>
<path d="M55.7034 77.4044L56.7333 80.8574L55.686 81.1698C54.2819 81.5883 53.8216 82.4402 54.2369 83.8327L54.388 84.339C54.7999 85.7203 55.655 86.1922 57.0591 85.7733L59.0273 85.1863L56.6243 77.1299L55.7034 77.4044ZM57.8594 84.6323L56.8118 84.9447C56.0179 85.1814 55.5881 84.9589 55.3305 84.0957L55.1625 83.5317C54.9014 82.6571 55.1356 82.2238 55.9298 81.9866L56.9771 81.6743L57.8594 84.6323Z" fill="url(#paint25_linear_201_22)"/>
<defs>
<linearGradient id="paint0_linear_201_22" x1="79.3687" y1="70.0313" x2="-65.5875" y2="8.6625" gradientUnits="userSpaceOnUse">
<stop stop-color="#CC9F45"/>
<stop offset="0.617121" stop-color="#F0D26D"/>
</linearGradient>
<linearGradient id="paint1_linear_201_22" x1="79.3687" y1="70.0313" x2="-65.5875" y2="8.6625" gradientUnits="userSpaceOnUse">
<stop stop-color="#CC9F45"/>
<stop offset="0.617121" stop-color="#F0D26D"/>
</linearGradient>
<linearGradient id="paint2_linear_201_22" x1="79.3687" y1="70.0313" x2="-65.5875" y2="8.6625" gradientUnits="userSpaceOnUse">
<stop stop-color="#CC9F45"/>
<stop offset="0.617121" stop-color="#F0D26D"/>
</linearGradient>
<linearGradient id="paint3_linear_201_22" x1="79.3687" y1="70.0313" x2="-65.5875" y2="8.6625" gradientUnits="userSpaceOnUse">
<stop stop-color="#CC9F45"/>
<stop offset="0.617121" stop-color="#F0D26D"/>
</linearGradient>
<linearGradient id="paint4_linear_201_22" x1="79.3687" y1="70.0313" x2="-65.5875" y2="8.6625" gradientUnits="userSpaceOnUse">
<stop stop-color="#CC9F45"/>
<stop offset="0.617121" stop-color="#F0D26D"/>
</linearGradient>
<linearGradient id="paint5_linear_201_22" x1="79.3687" y1="70.0313" x2="-65.5875" y2="8.6625" gradientUnits="userSpaceOnUse">
<stop stop-color="#CC9F45"/>
<stop offset="0.617121" stop-color="#F0D26D"/>
</linearGradient>
<linearGradient id="paint6_linear_201_22" x1="79.3687" y1="70.0313" x2="-65.5875" y2="8.6625" gradientUnits="userSpaceOnUse">
<stop stop-color="#CC9F45"/>
<stop offset="0.617121" stop-color="#F0D26D"/>
</linearGradient>
<linearGradient id="paint7_linear_201_22" x1="79.3687" y1="70.0313" x2="-65.5875" y2="8.6625" gradientUnits="userSpaceOnUse">
<stop stop-color="#CC9F45"/>
<stop offset="0.617121" stop-color="#F0D26D"/>
</linearGradient>
<linearGradient id="paint8_linear_201_22" x1="79.3687" y1="70.0313" x2="-65.5875" y2="8.6625" gradientUnits="userSpaceOnUse">
<stop stop-color="#CC9F45"/>
<stop offset="0.617121" stop-color="#F0D26D"/>
</linearGradient>
<linearGradient id="paint9_linear_201_22" x1="79.3687" y1="70.0313" x2="-65.5875" y2="8.6625" gradientUnits="userSpaceOnUse">
<stop stop-color="#CC9F45"/>
<stop offset="0.617121" stop-color="#F0D26D"/>
</linearGradient>
<linearGradient id="paint10_linear_201_22" x1="79.3687" y1="70.0313" x2="-65.5875" y2="8.6625" gradientUnits="userSpaceOnUse">
<stop stop-color="#CC9F45"/>
<stop offset="0.617121" stop-color="#F0D26D"/>
</linearGradient>
<linearGradient id="paint11_linear_201_22" x1="79.3687" y1="70.0313" x2="-65.5875" y2="8.6625" gradientUnits="userSpaceOnUse">
<stop stop-color="#CC9F45"/>
<stop offset="0.617121" stop-color="#F0D26D"/>
</linearGradient>
<linearGradient id="paint12_linear_201_22" x1="79.3687" y1="70.0313" x2="-65.5875" y2="8.6625" gradientUnits="userSpaceOnUse">
<stop stop-color="#CC9F45"/>
<stop offset="0.617121" stop-color="#F0D26D"/>
</linearGradient>
<linearGradient id="paint13_linear_201_22" x1="79.3687" y1="70.0313" x2="-65.5875" y2="8.6625" gradientUnits="userSpaceOnUse">
<stop stop-color="#CC9F45"/>
<stop offset="0.617121" stop-color="#F0D26D"/>
</linearGradient>
<linearGradient id="paint14_linear_201_22" x1="79.3687" y1="70.0313" x2="-65.5875" y2="8.6625" gradientUnits="userSpaceOnUse">
<stop stop-color="#CC9F45"/>
<stop offset="0.617121" stop-color="#F0D26D"/>
</linearGradient>
<linearGradient id="paint15_linear_201_22" x1="79.3687" y1="70.0313" x2="-65.5875" y2="8.6625" gradientUnits="userSpaceOnUse">
<stop stop-color="#CC9F45"/>
<stop offset="0.617121" stop-color="#F0D26D"/>
</linearGradient>
<linearGradient id="paint16_linear_201_22" x1="79.3687" y1="70.0313" x2="-65.5875" y2="8.6625" gradientUnits="userSpaceOnUse">
<stop stop-color="#CC9F45"/>
<stop offset="0.617121" stop-color="#F0D26D"/>
</linearGradient>
<linearGradient id="paint17_linear_201_22" x1="79.3687" y1="70.0313" x2="-65.5875" y2="8.6625" gradientUnits="userSpaceOnUse">
<stop stop-color="#CC9F45"/>
<stop offset="0.617121" stop-color="#F0D26D"/>
</linearGradient>
<linearGradient id="paint18_linear_201_22" x1="79.3687" y1="70.0313" x2="-65.5875" y2="8.6625" gradientUnits="userSpaceOnUse">
<stop stop-color="#CC9F45"/>
<stop offset="0.617121" stop-color="#F0D26D"/>
</linearGradient>
<linearGradient id="paint19_linear_201_22" x1="79.3687" y1="70.0313" x2="-65.5875" y2="8.6625" gradientUnits="userSpaceOnUse">
<stop stop-color="#CC9F45"/>
<stop offset="0.617121" stop-color="#F0D26D"/>
</linearGradient>
<linearGradient id="paint20_linear_201_22" x1="79.3687" y1="70.0313" x2="-65.5875" y2="8.6625" gradientUnits="userSpaceOnUse">
<stop stop-color="#CC9F45"/>
<stop offset="0.617121" stop-color="#F0D26D"/>
</linearGradient>
<linearGradient id="paint21_linear_201_22" x1="79.3687" y1="70.0313" x2="-65.5875" y2="8.6625" gradientUnits="userSpaceOnUse">
<stop stop-color="#CC9F45"/>
<stop offset="0.617121" stop-color="#F0D26D"/>
</linearGradient>
<linearGradient id="paint22_linear_201_22" x1="79.3687" y1="70.0313" x2="-65.5875" y2="8.6625" gradientUnits="userSpaceOnUse">
<stop stop-color="#CC9F45"/>
<stop offset="0.617121" stop-color="#F0D26D"/>
</linearGradient>
<linearGradient id="paint23_linear_201_22" x1="79.3687" y1="70.0313" x2="-65.5875" y2="8.6625" gradientUnits="userSpaceOnUse">
<stop stop-color="#CC9F45"/>
<stop offset="0.617121" stop-color="#F0D26D"/>
</linearGradient>
<linearGradient id="paint24_linear_201_22" x1="79.3687" y1="70.0313" x2="-65.5875" y2="8.6625" gradientUnits="userSpaceOnUse">
<stop stop-color="#CC9F45"/>
<stop offset="0.617121" stop-color="#F0D26D"/>
</linearGradient>
<linearGradient id="paint25_linear_201_22" x1="79.3687" y1="70.0313" x2="-65.5875" y2="8.6625" gradientUnits="userSpaceOnUse">
<stop stop-color="#CC9F45"/>
<stop offset="0.617121" stop-color="#F0D26D"/>
</linearGradient>
</defs>
</svg>
