<svg width="42" height="14" viewBox="0 0 42 14" fill="#D9D9D9" xmlns="http://www.w3.org/2000/svg">
<path d="M2.41359 4.3248V13.657H0.305192V4.3248H2.41359ZM1.35782 2.55129C1.51613 2.55143 1.67293 2.52018 1.81924 2.45934C1.96556 2.39849 2.09853 2.30924 2.21056 2.19667C2.3226 2.08411 2.4115 1.95043 2.47219 1.80329C2.53287 1.65615 2.56416 1.49842 2.56427 1.3391C2.56392 1.01745 2.43662 0.709098 2.21038 0.481875C1.98413 0.254653 1.67746 0.127162 1.35782 0.127442C1.03817 0.127162 0.731502 0.254653 0.505256 0.481875C0.27901 0.709098 0.151715 1.01745 0.151367 1.3391C0.151505 1.49839 0.18282 1.6561 0.243524 1.80321C0.304229 1.95032 0.393134 2.08396 0.505163 2.1965C0.617192 2.30904 0.750152 2.39827 0.896451 2.4591C1.04275 2.51993 1.19952 2.55143 1.35782 2.55129ZM14.686 0.28514V13.657H12.5776V12.7985C11.9211 13.499 10.8464 13.9188 9.65256 13.9188C6.62672 13.9188 4.91758 11.5612 4.91758 9.00186C4.91758 6.42348 6.62987 4.06593 9.65256 4.06593C10.8464 4.06593 11.9211 4.48593 12.5776 5.1862V0.28514H14.686ZM9.79378 6.0225C8.14134 6.0225 7.02887 7.38288 7.02887 9.00186C7.02887 10.6018 8.14449 11.959 9.79378 11.959C11.2454 11.959 12.6592 10.9996 12.6592 9.00186C12.6592 7.00408 11.2454 6.0225 9.79378 6.0225ZM24.2783 10.9397H26.5654C25.868 12.7797 24.1368 13.919 22.0882 13.919C19.2417 13.919 17.1335 11.8391 17.1335 8.9831C17.1335 6.20582 19.1443 4.0662 21.9877 4.0662C24.7526 4.0662 26.7038 6.18363 26.7038 8.90412C26.7038 9.20393 26.7227 9.44378 26.6628 9.74359H19.3233C19.5622 11.0818 20.6776 11.9625 22.0882 11.9625C23.0246 11.959 23.8194 11.6373 24.2783 10.9397ZM19.3643 8.03929H24.4793C24.2594 6.78008 23.3451 5.95963 21.9908 5.95963C20.6366 5.95963 19.5433 6.78325 19.3643 8.03929ZM31.2973 4.3248V13.657H29.1891V4.3248H31.2973ZM30.2415 2.55129C30.3998 2.55147 30.5566 2.52025 30.7029 2.45943C30.8492 2.39862 30.9822 2.30939 31.0942 2.19684C31.2062 2.0843 31.2952 1.95064 31.3558 1.80352C31.4165 1.65639 31.4478 1.49867 31.4479 1.33937C31.4478 1.18007 31.4165 1.02235 31.3558 0.875218C31.2952 0.72809 31.2062 0.594436 31.0942 0.481891C30.9822 0.369347 30.8492 0.280117 30.7029 0.2193C30.5566 0.158482 30.3998 0.127269 30.2415 0.127442C30.0832 0.127303 29.9264 0.158541 29.7801 0.21937C29.6338 0.2802 29.5009 0.369431 29.3888 0.481969C29.2768 0.594506 29.1879 0.728147 29.1272 0.875259C29.0665 1.02237 29.0352 1.18008 29.035 1.33937C29.0352 1.49866 29.0665 1.65636 29.1272 1.80347C29.1879 1.95059 29.2768 2.08423 29.3888 2.19676C29.5009 2.3093 29.6338 2.39853 29.7801 2.45936C29.9264 2.52019 30.0832 2.55143 30.2415 2.55129ZM36.4751 0.28514V13.657H34.3669V0.28514H36.4751Z" />
<path d="M39.0479 12.3788C39.0436 12.6622 39.1236 12.9404 39.2776 13.1777C39.4316 13.415 39.6525 13.6006 39.9121 13.7106C40.1718 13.8214 40.4582 13.8521 40.7353 13.7989C41.0123 13.746 41.2673 13.6108 41.4671 13.4106C41.6668 13.212 41.8035 12.9584 41.8601 12.6818C41.9166 12.4042 41.888 12.1159 41.7782 11.855C41.6699 11.5941 41.4875 11.3712 41.2537 11.2144C41.0194 11.0572 40.7434 10.9746 40.4617 10.9775C40.0964 10.9741 39.744 11.1132 39.4784 11.3658C39.2148 11.6185 39.0602 11.9653 39.0479 12.3315V12.3788Z" />
</svg>
