<svg width="507" height="336" viewBox="0 0 507 336" fill="none" xmlns="http://www.w3.org/2000/svg">
<path d="M479.085 55.9205L482.318 63.5967C465.878 71.9622 447.167 80.6364 426.185 89.6192L420.34 92.115C421.065 86.7439 421.751 80.2286 422.397 72.5693C422.945 66.4407 423.44 61.0012 423.883 56.2509C424.566 49.6594 424.836 44.3042 424.693 40.1854C424.369 30.8799 419.801 26.3816 410.99 26.6903C396.71 27.1907 380.067 34.1123 361.062 47.4551C335.521 65.3036 323.139 85.3639 323.914 107.636C324.195 115.721 327.799 120.941 334.726 123.294C341.799 125.49 356.653 126.192 379.289 125.399L382.252 125.295C382.538 120.397 382.649 117.033 382.585 115.203C382.134 102.236 379.915 90.9349 375.929 81.2996C391.249 84.4284 399.312 97.5866 400.119 120.774L400.254 124.664L436.007 122.724C452.566 122.144 464.306 122.954 471.228 125.156C494.145 132.448 506.042 148.679 506.918 173.849C508.096 207.715 496.618 240.65 472.483 272.653C443.693 310.777 407.65 330.597 364.353 332.114C332.602 333.226 307.998 321.182 290.542 295.982C253.694 321.099 214.229 334.396 172.148 335.87C139.789 337.004 110.062 330.714 82.9667 317.001C30.1643 290.137 2.55781 242.076 0.147385 172.819C-1.3817 128.885 8.98709 92.4764 31.2537 63.593C53.5204 34.7096 82.7321 19.6345 118.889 18.3676C153.982 17.138 184.609 27.4437 210.771 49.2845C225.335 61.2985 237.262 76.2304 246.553 94.0803C255.839 111.778 266.717 140.263 279.188 179.537L292.015 220.326C299.019 242.38 305.227 259.04 310.638 270.306C325.365 260.778 339.837 243.928 354.054 219.756C368.423 195.579 377.007 173.437 379.805 153.331L369.331 153.927C343.96 154.816 325.962 153.385 315.336 149.633C304.857 145.724 299.437 138.582 299.076 128.209C298.492 111.429 307.017 91.9618 324.651 69.8083C338.787 52.054 355.712 37.944 375.425 27.4782C395.133 16.8599 420.767 8.24865 452.327 1.6444L460.027 0L459.471 3.68512C458.191 10.603 457.188 16.7476 456.462 22.1187L453.565 43.7559C452.74 50.6578 452.362 55.1003 452.431 57.0835C452.585 61.5074 454.485 63.6555 458.131 63.5277C460.714 63.4372 463.354 62.8102 466.051 61.6465C472.043 58.9928 476.388 57.0841 479.085 55.9205ZM397.108 152.266C392.838 173.799 382.906 196.523 367.311 220.437C351.716 244.352 334.141 263.831 314.587 278.873C322.588 294.63 331.185 305.631 340.376 311.877C349.563 317.97 361.372 320.763 375.804 320.258C405.124 319.23 430.605 306.195 452.244 281.152C474.036 256.104 484.385 227.867 483.291 196.442C482.675 178.746 477.313 166.715 467.205 160.349C457.243 153.825 439.577 151.008 414.207 151.896L402.813 152.296L397.108 152.266ZM286.381 287.88C278.526 271.965 272.629 257.662 268.688 244.97L248.117 178.335C231.821 125.296 213.075 87.082 191.879 63.6926C170.678 40.1506 144.885 28.9119 114.501 29.9765C82.7505 31.0889 58.2834 42.6376 41.1003 64.6226C24.0691 86.6022 16.2119 116.508 17.5286 154.34C18.2135 174.019 22.4764 193.801 30.3174 213.688C38.3104 233.569 48.717 250.692 61.5375 265.058C77.6809 283.126 96.9473 296.961 119.337 306.563C141.726 316.164 164.998 320.542 189.153 319.695C221.512 318.561 253.921 307.956 286.381 287.88Z" fill="#B49759"/>
<path d="M479.085 55.9205L482.318 63.5967C465.878 71.9622 447.167 80.6364 426.185 89.6192L420.34 92.115C421.065 86.7439 421.751 80.2286 422.397 72.5693C422.945 66.4407 423.44 61.0012 423.883 56.2509C424.566 49.6594 424.836 44.3042 424.693 40.1854C424.369 30.8799 419.801 26.3816 410.99 26.6903C396.71 27.1907 380.067 34.1123 361.062 47.4551C335.521 65.3036 323.139 85.3639 323.914 107.636C324.195 115.721 327.799 120.941 334.726 123.294C341.799 125.49 356.653 126.192 379.289 125.399L382.252 125.295C382.538 120.397 382.649 117.033 382.585 115.203C382.134 102.236 379.915 90.9349 375.929 81.2996C391.249 84.4284 399.312 97.5866 400.119 120.774L400.254 124.664L436.007 122.724C452.566 122.144 464.306 122.954 471.228 125.156C494.145 132.448 506.042 148.679 506.918 173.849C508.096 207.715 496.618 240.65 472.483 272.653C443.693 310.777 407.65 330.597 364.353 332.114C332.602 333.226 307.998 321.182 290.542 295.982C253.694 321.099 214.229 334.396 172.148 335.87C139.789 337.004 110.062 330.714 82.9667 317.001C30.1643 290.137 2.55781 242.076 0.147385 172.819C-1.3817 128.885 8.98709 92.4764 31.2537 63.593C53.5204 34.7096 82.7321 19.6345 118.889 18.3676C153.982 17.138 184.609 27.4437 210.771 49.2845C225.335 61.2985 237.262 76.2304 246.553 94.0803C255.839 111.778 266.717 140.263 279.188 179.537L292.015 220.326C299.019 242.38 305.227 259.04 310.638 270.306C325.365 260.778 339.837 243.928 354.054 219.756C368.423 195.579 377.007 173.437 379.805 153.331L369.331 153.927C343.96 154.816 325.962 153.385 315.336 149.633C304.857 145.724 299.437 138.582 299.076 128.209C298.492 111.429 307.017 91.9618 324.651 69.8083C338.787 52.054 355.712 37.944 375.425 27.4782C395.133 16.8599 420.767 8.24865 452.327 1.6444L460.027 0L459.471 3.68512C458.191 10.603 457.188 16.7476 456.462 22.1187L453.565 43.7559C452.74 50.6578 452.362 55.1003 452.431 57.0835C452.585 61.5074 454.485 63.6555 458.131 63.5277C460.714 63.4372 463.354 62.8102 466.051 61.6465C472.043 58.9928 476.388 57.0841 479.085 55.9205ZM397.108 152.266C392.838 173.799 382.906 196.523 367.311 220.437C351.716 244.352 334.141 263.831 314.587 278.873C322.588 294.63 331.185 305.631 340.376 311.877C349.563 317.97 361.372 320.763 375.804 320.258C405.124 319.23 430.605 306.195 452.244 281.152C474.036 256.104 484.385 227.867 483.291 196.442C482.675 178.746 477.313 166.715 467.205 160.349C457.243 153.825 439.577 151.008 414.207 151.896L402.813 152.296L397.108 152.266ZM286.381 287.88C278.526 271.965 272.629 257.662 268.688 244.97L248.117 178.335C231.821 125.296 213.075 87.082 191.879 63.6926C170.678 40.1506 144.885 28.9119 114.501 29.9765C82.7505 31.0889 58.2834 42.6376 41.1003 64.6226C24.0691 86.6022 16.2119 116.508 17.5286 154.34C18.2135 174.019 22.4764 193.801 30.3174 213.688C38.3104 233.569 48.717 250.692 61.5375 265.058C77.6809 283.126 96.9473 296.961 119.337 306.563C141.726 316.164 164.998 320.542 189.153 319.695C221.512 318.561 253.921 307.956 286.381 287.88Z" fill="url(#paint0_linear_407_64)"/>
<defs>
<linearGradient id="paint0_linear_407_64" x1="316.304" y1="373.417" x2="308.434" y2="-285.08" gradientUnits="userSpaceOnUse">
<stop offset="0.140608" stop-color="#CC9F45"/>
<stop offset="0.617121" stop-color="#F0D26D"/>
</linearGradient>
</defs>
</svg>
