<svg width="20" height="20" viewBox="0 0 20 20" fill="none" xmlns="http://www.w3.org/2000/svg">
<path d="M18 10.0489C18 5.60361 14.4183 2 10 2C5.58172 2 2 5.60361 2 10.0489C2 14.0663 4.92547 17.3962 8.75 18V12.3755H6.71875V10.0489H8.75V8.27562C8.75 6.25837 9.94438 5.1441 11.7717 5.1441C12.6467 5.1441 13.5625 5.3013 13.5625 5.3013V7.28208H12.5537C11.56 7.28208 11.25 7.90257 11.25 8.53972V10.0489H13.4688L13.1141 12.3755H11.25V18C15.0745 17.3962 18 14.0663 18 10.0489Z" fill="url(#paint0_linear_245_97)"/>
<defs>
<linearGradient id="paint0_linear_245_97" x1="2.62212" y1="7.04645" x2="8.22664" y2="6.95799" gradientUnits="userSpaceOnUse">
<stop stop-color="#FFDD64"/>
<stop offset="1" stop-color="#CA9D00"/>
</linearGradient>
</defs>
</svg>
