<svg width="160" height="53" viewBox="0 0 160 53" xmlns="http://www.w3.org/2000/svg"><path d="M9.195 16.373v35.329H1.163V16.373h8.032zM5.173 9.659A4.592 4.592 0 009.769 5.07 4.592 4.592 0 005.173.483 4.592 4.592 0 00.577 5.07a4.592 4.592 0 004.596 4.588zM55.947 1.08v50.622h-8.032v-3.25c-2.501 2.652-6.595 4.241-11.143 4.241-11.527 0-18.038-8.925-18.038-18.614 0-9.761 6.523-18.686 18.038-18.686 4.548 0 8.642 1.59 11.143 4.241V1.08h8.032zM37.31 22.8c-6.295 0-10.533 5.15-10.533 11.279 0 6.057 4.25 11.195 10.533 11.195 5.53 0 10.916-3.632 10.916-11.195 0-7.563-5.386-11.278-10.916-11.278zm55.179 18.615h8.713c-2.657 6.966-9.252 11.279-17.056 11.279-10.844 0-18.875-7.874-18.875-18.686 0-10.514 7.66-18.614 18.492-18.614 10.533 0 17.966 8.016 17.966 18.315 0 1.135.072 2.043-.156 3.178h-27.96c.91 5.066 5.159 8.4 10.533 8.4 3.567-.013 6.595-1.231 8.343-3.872zm-18.72-10.98h19.486c-.838-4.767-4.321-7.873-9.48-7.873-5.159 0-9.324 3.118-10.006 7.873zm45.459-14.062v35.329h-8.031V16.373h8.031zm-4.022-6.714a4.591 4.591 0 004.596-4.588 4.591 4.591 0 00-4.596-4.588 4.592 4.592 0 00-4.596 4.588 4.592 4.592 0 004.596 4.588zm23.747-8.579v50.622h-8.031V1.08h8.031z" fill="currentColor"></path><path d="M148.756 46.863a5.382 5.382 0 003.292 5.042 5.429 5.429 0 003.136.334 5.368 5.368 0 002.788-1.47 5.414 5.414 0 001.497-2.759 5.3 5.3 0 00-.312-3.13 5.428 5.428 0 00-1.998-2.425 5.343 5.343 0 00-3.017-.897 5.381 5.381 0 00-3.746 1.47 5.297 5.297 0 00-1.64 3.656v.18z" fill="#ed2024"></path></svg>
