<svg fill="none" height="90" viewBox="0 0 90 90" width="90" xmlns="http://www.w3.org/2000/svg" xmlns:xlink="http://www.w3.org/1999/xlink"><linearGradient id="a" gradientUnits="userSpaceOnUse" x1="79.3687" x2="-65.5875" y1="70.0313" y2="8.6625"><stop offset="0" stop-color="#cc9f45"/><stop offset=".617121" stop-color="#f0d26d"/></linearGradient><g fill="url(#a)"><path clip-rule="evenodd" d="m45 90c24.8528 0 45-20.1472 45-45s-20.1472-45-45-45-45 20.1472-45 45 20.1472 45 45 45zm0-.7875c24.4179 0 44.2125-19.7946 44.2125-44.2125s-19.7946-44.2125-44.2125-44.2125-44.2125 19.7946-44.2125 44.2125 19.7946 44.2125 44.2125 44.2125z" fill-rule="evenodd"/><path clip-rule="evenodd" d="m44.9437 77.2875c17.863 0 32.3438-14.4808 32.3438-32.3438 0-17.8629-14.4808-32.3437-32.3438-32.3437-17.8629 0-32.3437 14.4808-32.3437 32.3437 0 17.863 14.4808 32.3438 32.3437 32.3438zm0-.7875c17.4281 0 31.5563-14.1282 31.5563-31.5563 0-17.428-14.1282-31.5562-31.5563-31.5562-17.428 0-31.5562 14.1282-31.5562 31.5562 0 17.4281 14.1282 31.5563 31.5562 31.5563z" fill-rule="evenodd"/><path d="m70.7284 33.2296.3695.8742c-1.8786.9527-4.0165 1.9405-6.414 2.9635l-.6679.2843c.0829-.6118.1613-1.3537.2351-2.2259.0626-.698.1191-1.3174.1698-1.8584.078-.7507.1089-1.3605.0925-1.8296-.0371-1.0598-.5589-1.572-1.5658-1.5369-1.6317.057-3.5333.8452-5.7049 2.3648-2.9184 2.0326-4.3333 4.317-4.2447 6.8535.0321.9208.444 1.5151 1.2354 1.7832.8082.2501 2.5055.33 5.092.2396l.3385-.0118c.0327-.5578.0454-.9408.0381-1.1493-.0516-1.4767-.305-2.7637-.7605-3.861 1.7505.3564 2.6717 1.8548 2.764 4.4954l.0154.443 4.0853-.2209c1.8921-.0661 3.2336.0263 4.0245.2769 2.6185.8304 3.9779 2.6789 4.078 5.5454.1346 3.8566-1.1769 7.6074-3.9347 11.2519-3.2896 4.3416-7.408 6.5987-12.3553 6.7715-3.628.1267-6.4393-1.2449-8.4339-4.1148-4.2103 2.8604-8.7197 4.3747-13.5281 4.5425-3.6975.1292-7.0942-.5871-10.1902-2.1488-6.0334-3.0594-9.1877-8.5325-9.4631-16.4196-.1749-5.0034 1.01-9.1497 3.5542-12.4389 2.5443-3.2893 5.8821-5.0061 10.0135-5.1504 4.0099-.14 7.5095 1.0336 10.4988 3.5209 1.6641 1.3681 3.0269 3.0687 4.0886 5.1014 1.0611 2.0155 2.304 5.2594 3.7289 9.7321l1.4658 4.6451c.8002 2.5114 1.5095 4.4088 2.1279 5.6916 1.6827-1.085 3.3363-3.0038 4.9608-5.7565 1.6418-2.7535 2.6226-5.2749 2.9425-7.5647l-1.1969.0679c-2.8989.1013-4.9554-.0618-6.1695-.489-1.1975-.4452-1.8168-1.2585-1.8581-2.4398-.0667-1.9111.9074-4.128 2.9223-6.6508 1.6152-2.022 3.5492-3.6288 5.8016-4.8206 2.252-1.2093 5.181-2.1899 8.7872-2.942l.8797-.1873-.0634.4197c-.1464.7877-.261 1.4875-.3439 2.0993l-.331 2.4639c-.0943.7861-.1375 1.292-.1295 1.5179.0176.5038.2347.7483.6513.7338.2951-.0102.5967-.0816.9049-.2142.6847-.3021 1.1811-.5196 1.4893-.6521zm-9.367 10.9721c-.4879 2.4522-1.6228 5.0399-3.4048 7.7634-1.7819 2.7235-3.79 4.9417-6.0244 6.6547.9143 1.7945 1.8967 3.0473 2.9469 3.7585 1.0496.6939 2.399 1.0121 4.0481.9545 3.3502-.117 6.2617-1.6015 8.7343-4.4534 2.49-2.8526 3.6725-6.0682 3.5475-9.6469-.0703-2.0152-.683-3.3854-1.838-4.1103-1.1383-.743-3.1569-1.0639-6.0558-.9627l-1.3019.0455zm-12.652 15.4439c-.8976-1.8124-1.5715-3.4413-2.0217-4.8867l-2.3505-7.5884c-1.862-6.0403-4.004-10.3921-6.4259-13.0558-2.4226-2.681-5.3698-3.9609-8.8415-3.8396-3.628.1267-6.4237 1.4418-8.3871 3.9455-1.9461 2.5031-2.8438 5.9088-2.6934 10.2172.0783 2.241.5654 4.494 1.4614 6.7586.9133 2.2641 2.1024 4.2141 3.5672 5.8502 1.8446 2.0576 4.0461 3.6331 6.6044 4.7266 2.5582 1.0934 5.2174 1.592 7.9774 1.4956 3.6975-.1292 7.4006-1.3369 11.1097-3.6232z"/><path d="m36.3807 78.0192-1.0083 3.4576-1.049-.306c-1.4059-.4101-2.2547.0555-2.6612 1.4501l-.1479.507c-.4033 1.3833.0587 2.2434 1.4647 2.6535l1.9709.5745 2.3527-8.0678zm-2.1107 7.2382-1.049-.3061c-.7953-.2317-1.0352-.652-.7833-1.5162l.1649-.5651c.2554-.876.6871-1.1127 1.4823-.8809l1.0487.306z"/><path d="m25.7426 74.2667 2.518 1.4515-1.5174 2.6319-2.0601-1.1874-.4261.7388 2.0602 1.1872-1.3915 2.414-2.518-1.4516-.4315.749 3.35 1.9313 4.1984-7.2824-3.35-1.9314z"/><path d="m22.2192 70.4015-2.5905 2.7079-.6768-.6478c-.7034-.6725-.7313-1.1817-.0588-1.8846l.9216-.9635c.415-.434.5552-.6326.6687-.8728l-.703-.6725c-.1376.3004-.3778.5863-.6516.8725l-.8887.9287c-.7472.7812-.9191 1.4473-.4624 2.134l-.0167.0174c-.7218-.3751-1.372-.1992-2.0526.5126l-.2577.2688c-.9382.9808-.9011 1.8974.1667 2.9188l1.4842 1.4198 5.8121-6.0752zm-5.2143 5.4502-.7811-.7473c-.6075-.5813-.6103-1.0822.0042-1.7244l.2908-.3038c.6143-.6422 1.1753-.6206 1.8352.0102l.6768.6478z"/><path d="m16.6758 64.0116-3.2019 2.0591-1.221-1.8988-.7273.4677 1.2213 1.8988-2.4139 1.5524-1.50683-2.3431-.72705.4677 2.02648 3.1509 7.0698-4.5466z"/><path d="m12.1238 54.3446-.8154.2873.9658 2.7412-2.86573 1.0097-.79001-2.2427-.80416.2834.79002 2.2427-2.62761.9258-.96584-2.7408-.81585.2873 1.28531 3.6473 7.92877-2.794z"/><path d="m4.94222 51.1181 4.30068-.4316c1.3501-.1355 2.0736-.9807 1.9406-2.3068-.1359-1.3496-1.0119-2.0218-2.3616-1.8864l-.96762.0973.09233.92 1.00336-.101c.83635-.0841 1.31083.3149 1.38263 1.0318.0708.7047-.3135 1.2017-1.14984 1.2856l-4.38416.4405c-.82433.0828-1.29985-.328-1.37059-1.0331-.07219-.7168.31381-1.2019 1.13778-1.2847l.76455-.0767-.09235-.9198-.71678.0721c-1.36173.1366-2.07462.9683-1.93912 2.3184.13339 1.3261.99838 2.0113 2.36013 1.8744z"/><path d="m3.69056 39.6966 7.46744 1.0381.1319-.9513-7.46704-1.0381.23634-1.7003-.85618-.1189-.60496 4.352.85616.1189z"/><path d="m15.2418 28.3014-3.0879-1.8556.5629-.9369c.7546-1.2556.5207-2.1949-.725-2.9435l-.4528-.2721c-1.235-.7422-2.18464-.5144-2.93926.7416l-1.05784 1.7601 7.2053 4.33zm-3.2556-3.2314-.5628.9364-2.64572-1.5896.56324-.9368c.42667-.7101.89438-.8353 1.66638-.3715l.5041.3032c.7823.4701.9015.9479.4748 1.6583z"/><path d="m22.1839 19.5674-.6156-.6068-2.039 2.0697-2.1637-2.1315 1.668-1.6933-.607-.5979-1.6682 1.6932-1.984-1.9547 2.0389-2.0693-.6155-.6067-2.713 2.7535 5.9861 5.8973z"/><path d="m26.198 16.5233-1.9661-3.189.7971-.4918c.8279-.5101 1.3275-.4093 1.838.4186l.6994 1.1345c.3153.5112.472.6966.6758.8672l.8278-.5106c-.2557-.2087-.4716-.513-.6796-.8505l-.6743-1.0936c-.5671-.9198-1.1682-1.2545-1.9476-.9856l-.0127-.0205c.5448-.6039.5387-1.2772.0219-2.11534l-.1953-.31663c-.7123-1.15514-1.6083-1.35042-2.8657-.57527l-1.7477 1.07767 4.4113 7.15497zm-3.9575-6.4191.9199-.56717c.7152-.44119 1.2007-.31701 1.6673.43905l.2204.35802c.4663.7564.304 1.2938-.4729 1.7725l-.7972.4918z"/><path d="m34.5833 3.75428.4432 6.88302-3.303-6.05515-1.349.39059 2.3372 8.07206.8304-.2402-1.9636-6.78076 3.4972 6.33646.7723-.2237-.4294-7.22437 1.9631 6.78047.8997-.2604-2.3374-8.07213z"/><path d="m43.8546 2.50545-1.6533 8.43325.9125-.0144.3311-1.79484 2.2816-.03678.4009 1.78312.9846-.0159-1.9483-8.37567zm1.678 5.74944-1.9211.03115.8733-4.69799z"/><path d="m55.3707 12.4268 2.0198-8.16126-.8508-.21052-1.4892 6.01588-.7492-6.56991-1.2126-.30002-2.0201 8.16083.863.2134 1.6677-6.7383.8038 7.3503z"/><path d="m63.1779 15.0491-2.5685-1.3579 1.4194-2.6852 2.1015 1.1108.3983-.7535-2.1015-1.1109 1.302-2.4624 2.5685 1.35783.4041-.76417-3.4176-1.80681-3.9279 7.42965 3.4177 1.8067z"/><path d="m74.3652 14.2379-4.1357 4.6124 2.4195-6.1514-.9295-.8339-5.611 6.2572.6616.5933 4.6329-5.1668-2.7381 6.866.742.6655 5.6111-6.2571z"/><path d="m73.0187 25.5485.5374.7961 6.2489-4.218.9602 1.4227.7165-.4833-2.4582-3.642-.7164.4837.9605 1.423z"/><path d="m78.2969 37.3175 6.9621-1.1669-6.6982 2.7419.1326.7932 7.2266.408-6.9623 1.1671.1545.9234 8.2887-1.389-.2342-1.3975-6.8886-.3548 6.3965-2.5817-.2321-1.3854-8.2886 1.3894z"/><path d="m79.0773 47.03 1.7427.5426-.2352 2.27-1.8185.1857-.1016.9796 8.549-.9371.1352-1.3019-8.1775-2.6467zm2.5603.8087 4.5611 1.4265-4.7592.4847z"/><path d="m77.3795 55.7965 2.6109.9698 1.0529 1.441-4.5834.0654-.3594.968 5.6246-.0757 2.2664 2.9673.351-.9454-3.0353-3.9317 3.9505 1.4669.3343-.9005-7.8781-2.9254z"/><path d="m71.9745 65.9737.7137.4883 1.6415-2.3984 2.5077 1.7158-1.3434 1.9626.704.4815 1.3431-1.9626 2.2993 1.5737-1.6413 2.3987.7136.4882 2.1839-3.1915-6.9382-4.7479z"/><path d="m71.6565 71.1381-1.9966 1.8911.5449.5753 1.9966-1.8911z"/><path d="m62.2984 74.257c-1.1983.7104-1.4286 1.7824-.7117 2.9913l3.2215 5.4346.806-.4779-3.2524-5.4863c-.4472-.754-.294-1.3196.3672-1.7117.651-.386 1.2209-.2491 1.6681.5052l3.2524 5.4863.8264-.49-3.2215-5.4346c-.7108-1.1986-1.7574-1.5273-2.956-.8169z"/><path d="m55.7034 77.4044 1.0299 3.453-1.0473.3124c-1.4041.4185-1.8644 1.2704-1.4491 2.6629l.1511.5063c.4119 1.3813 1.267 1.8532 2.6711 1.4343l1.9682-.587-2.403-8.0564zm2.156 7.2279-1.0476.3124c-.7939.2367-1.2237.0142-1.4813-.849l-.168-.564c-.2611-.8746-.0269-1.3079.7673-1.5451l1.0473-.3123z"/></g></svg>