<svg width="20" height="20" viewBox="0 0 20 20" fill="none" xmlns="http://www.w3.org/2000/svg">
<path fill-rule="evenodd" clip-rule="evenodd" d="M14.022 17.2097C14.2501 17.3619 14.544 17.4 14.8061 17.3065C15.0682 17.2123 15.2608 17.0013 15.3189 16.7455C15.9344 14.018 17.4276 7.11432 17.9879 4.63323C18.0304 4.44623 17.9595 4.25188 17.8037 4.12699C17.6479 4.0021 17.4318 3.96604 17.2392 4.03349C14.2692 5.07001 5.12269 8.30578 1.38419 9.6101C1.1469 9.69292 0.99249 9.90797 1.00028 10.1437C1.00878 10.3801 1.17736 10.5852 1.42031 10.654C3.0969 11.1268 5.29764 11.7847 5.29764 11.7847C5.29764 11.7847 6.32612 14.7132 6.86232 16.2025C6.92961 16.3895 7.08473 16.5365 7.28943 16.5872C7.49343 16.6373 7.71159 16.5845 7.86388 16.449C8.72519 15.6823 10.0568 14.4968 10.0568 14.4968C10.0568 14.4968 12.5869 16.2459 14.022 17.2097V17.2097ZM6.22341 11.4147L7.41268 15.1133L7.67688 12.7711C7.67688 12.7711 12.2717 8.86344 14.8911 6.63613C14.9676 6.57068 14.9782 6.46116 14.9145 6.38435C14.8514 6.30755 14.7353 6.28952 14.6481 6.34161C11.6123 8.16954 6.22341 11.4147 6.22341 11.4147Z" fill="url(#paint0_linear_245_98)"/>
<defs>
<linearGradient id="paint0_linear_245_98" x1="1.66101" y1="8.21289" x2="7.61489" y2="8.09327" gradientUnits="userSpaceOnUse">
<stop stop-color="#FFDD64"/>
<stop offset="1" stop-color="#CA9D00"/>
</linearGradient>
</defs>
</svg>
