<svg width="20" height="20" viewBox="0 0 20 20" fill="none" xmlns="http://www.w3.org/2000/svg">
<path fill-rule="evenodd" clip-rule="evenodd" d="M16.2062 3.65667C15.7839 3.2788 14.0946 2.03405 10.2937 2.01182C10.2937 2.01182 5.82592 1.74509 3.64761 3.74558C2.42509 4.9681 2.00276 6.72409 1.95831 8.92463C1.91385 11.1252 1.84717 15.2373 5.82592 16.3709V18.0824C5.82592 18.0824 5.80369 18.7715 6.24825 18.9048C6.69989 19.0494 6.99002 18.724 7.36925 18.2988C7.45661 18.2008 7.5487 18.0976 7.64859 17.9935C7.93755 17.6823 8.33764 17.2378 8.6266 16.8821C11.3384 17.1044 13.4278 16.5932 13.6723 16.5043C13.7211 16.4886 13.7894 16.4713 13.8738 16.4499C14.7507 16.2275 17.3625 15.5652 17.8289 11.8142C18.3623 7.54651 17.6066 4.85696 16.2062 3.65667ZM16.673 11.4808C16.2881 14.6213 14.167 15.0838 13.4412 15.2421C13.3708 15.2574 13.3135 15.2699 13.2722 15.2817C13.0721 15.3484 11.2495 15.793 8.9378 15.6596C8.9378 15.6596 7.22626 17.7268 6.67057 18.2825C6.58166 18.3714 6.49275 18.3936 6.42607 18.3936C6.33716 18.3714 6.31493 18.2602 6.31493 18.1046C6.31493 17.8824 6.33716 15.2595 6.33716 15.2595C3.11988 14.3646 3.17035 11.1006 3.19964 9.20674L3.19964 9.20672V9.20671L3.19964 9.2067C3.20091 9.12483 3.20213 9.04552 3.20306 8.96908C3.24751 7.12418 3.58093 5.63493 4.6034 4.61245C6.4483 2.94538 10.2492 3.18989 10.2492 3.18989C13.45 3.21211 14.9837 4.1679 15.3394 4.50132C16.4952 5.52379 17.0953 7.94661 16.673 11.4808ZM10.3452 7.49031C10.3516 7.3722 10.4525 7.28163 10.5706 7.28802C11.0177 7.31218 11.3872 7.44734 11.6497 7.72012C11.9111 7.99165 12.0383 8.37033 12.0622 8.82432C12.0684 8.94244 11.9777 9.04323 11.8596 9.04945C11.7415 9.05566 11.6407 8.96495 11.6344 8.84684C11.6139 8.45615 11.5077 8.1902 11.3411 8.01715C11.1758 7.84537 10.9229 7.73601 10.5475 7.71572C10.4294 7.70934 10.3388 7.60842 10.3452 7.49031ZM10.2882 6.13271C10.1703 6.1234 10.0672 6.21145 10.0579 6.32936C10.0485 6.44727 10.1366 6.5504 10.2545 6.55971C11.0572 6.62309 11.669 6.89462 12.1139 7.3799C12.5403 7.84704 12.7677 8.45864 12.7469 9.18534C12.7435 9.30358 12.8367 9.40216 12.9549 9.40554C13.0731 9.40892 13.1717 9.31581 13.1751 9.19758C13.1988 8.36836 12.9371 7.6463 12.4301 7.09095L12.4298 7.09064C11.8967 6.50905 11.1748 6.2027 10.2882 6.13271ZM9.63486 5.25695C9.63486 5.13867 9.73074 5.04279 9.84902 5.04279C11.102 5.04279 12.1568 5.46253 12.9992 6.28151C13.8477 7.10645 14.2866 8.23243 14.2866 9.63597C14.2866 9.75425 14.1907 9.85013 14.0724 9.85013C13.9542 9.85013 13.8583 9.75425 13.8583 9.63597C13.8583 8.32762 13.4525 7.31966 12.7006 6.58861C11.9425 5.85159 10.9967 5.47111 9.84902 5.47111C9.73074 5.47111 9.63486 5.37523 9.63486 5.25695ZM11.0701 11.5252C10.9145 11.7252 10.6033 11.703 10.6033 11.703C8.40278 11.1251 7.84709 8.92452 7.84709 8.92452C7.84709 8.92452 7.82486 8.61333 8.02491 8.45774L8.42501 8.14655C8.60283 7.99096 8.7362 7.61309 8.53615 7.25745C8.4865 7.18297 8.42452 7.08693 8.35825 6.98423C8.24652 6.81107 8.12258 6.619 8.02491 6.47948C7.84709 6.23497 7.44699 5.74596 7.44699 5.74596C7.24694 5.50146 6.95798 5.457 6.6468 5.61259C6.35784 5.79042 6.0911 6.01269 5.8466 6.27942C5.64655 6.5017 5.53541 6.72398 5.51318 6.94625V7.03517C5.51318 7.14629 5.53541 7.23519 5.55763 7.32409L5.55764 7.32413C5.64655 7.67977 5.89105 8.23546 6.40229 9.16902C6.7357 9.76917 7.09135 10.2804 7.42476 10.7027C7.60258 10.925 7.80264 11.1473 8.04714 11.3918L8.13605 11.4807C8.35833 11.7252 8.60283 11.9253 8.82511 12.1031C9.24744 12.4365 9.75867 12.7921 10.3588 13.1255C11.3146 13.6368 11.8703 13.8813 12.2037 13.9702C12.2926 13.9924 12.4038 14.0147 12.4927 14.0147H12.5816C12.8039 13.9702 13.0261 13.8813 13.2484 13.6812C13.5374 13.4367 13.7596 13.17 13.9152 12.881C14.0708 12.5699 14.0264 12.2809 13.7819 12.0808C13.7819 12.0808 13.2929 11.6807 13.0484 11.5029C12.8261 11.3251 12.4704 11.1028 12.2704 10.9917C11.8925 10.7916 11.5369 10.925 11.3813 11.1251L11.0701 11.5252Z" fill="url(#paint0_linear_245_99)"/>
<defs>
<linearGradient id="paint0_linear_245_99" x1="2.5724" y1="7.34283" x2="8.19541" y2="7.25872" gradientUnits="userSpaceOnUse">
<stop stop-color="#FFDD64"/>
<stop offset="1" stop-color="#CA9D00"/>
</linearGradient>
</defs>
</svg>
