<svg width="56" height="76" viewBox="0 0 56 76" fill="none" xmlns="http://www.w3.org/2000/svg">
<path fill-rule="evenodd" clip-rule="evenodd" d="M48.3292 50.6999C53.1138 42.6185 56 34.1798 56 28.1584C56 12.6069 43.464 0 28 0C12.536 0 0 12.6069 0 28.1584C0 34.1798 2.90825 42.6185 7.71131 50.6999C15.313 63.4899 26.3337 75.3846 28 75.3846C29.7564 75.3846 40.7568 63.4899 48.3292 50.6999ZM46.0527 20.1104L45.7976 19.4936C45.5848 19.5871 45.2421 19.7405 44.7693 19.9537C44.5565 20.0472 44.3482 20.0976 44.1445 20.1049C43.8568 20.1152 43.7069 19.9426 43.6948 19.5871C43.6893 19.4277 43.7191 19.0707 43.7842 18.5161L44.0128 16.7774C44.07 16.3458 44.1492 15.852 44.2502 15.2961L44.2941 15L43.6866 15.1321C41.1966 15.6628 39.1742 16.3548 37.6193 17.2081C36.064 18.0491 34.7287 19.1829 33.6135 20.6096C32.2222 22.3898 31.5497 23.9541 31.5958 25.3025C31.6242 26.1361 32.0519 26.7099 32.8786 27.0241C33.7169 27.3256 35.1369 27.4406 37.1385 27.3691L37.9649 27.3212C37.7441 28.9369 37.0669 30.7162 35.9332 32.659C34.8116 34.6014 33.6698 35.9554 32.5079 36.721C32.081 35.8157 31.5912 34.477 31.0387 32.7048L30.0267 29.4271C29.0428 26.2712 28.1845 23.9821 27.4519 22.56C26.7189 21.1257 25.7779 19.9258 24.6289 18.9604C22.5648 17.2053 20.1485 16.3772 17.3798 16.476C14.5272 16.5778 12.2225 17.7892 10.4658 20.1102C8.70904 22.4311 7.89099 25.3568 8.01163 28.8873C8.2018 34.4526 10.3798 38.3146 14.5457 40.4733C16.6834 41.5752 19.0287 42.0807 21.5817 41.9896C24.9017 41.8711 28.0153 40.8026 30.9224 38.7843C32.2996 40.8093 34.2408 41.7771 36.7458 41.6877C40.1617 41.5658 43.0054 39.9731 45.2767 36.9097C47.1809 34.3379 48.0865 31.6914 47.9935 28.97C47.9244 26.9474 46.9858 25.6431 45.1777 25.0571C44.6317 24.8803 43.7054 24.8151 42.399 24.8618L39.5782 25.0176L39.5676 24.7051C39.5039 22.8418 38.8677 21.7844 37.6591 21.533C37.9736 22.3073 38.1486 23.2154 38.1842 24.2574C38.1892 24.4045 38.1805 24.6748 38.1579 25.0683L37.9242 25.0767C36.1383 25.1404 34.9664 25.084 34.4083 24.9076C33.8619 24.7184 33.5775 24.299 33.5553 23.6493C33.4942 21.8596 34.4711 20.2476 36.4861 18.8134C37.9855 17.7412 39.2986 17.185 40.4252 17.1448C41.1204 17.1199 41.4808 17.4814 41.5063 18.2292C41.5176 18.5602 41.4963 18.9905 41.4424 19.5202C41.4075 19.9019 41.3684 20.339 41.3252 20.8315C41.2743 21.4469 41.2202 21.9705 41.1629 22.4021L41.6241 22.2015C43.2794 21.4797 44.7557 20.7827 46.0527 20.1104ZM36.9791 32.7137C38.2095 30.792 38.9931 28.966 39.33 27.2357L39.7801 27.2381L40.679 27.206C42.6806 27.1345 44.0744 27.361 44.8604 27.8852C45.6579 28.3968 46.0809 29.3635 46.1295 30.7855C46.2158 33.3107 45.3993 35.5798 43.68 37.5926C41.9727 39.605 39.9625 40.6524 37.6492 40.735C36.5106 40.7756 35.5789 40.5511 34.8542 40.0615C34.129 39.5596 33.4508 38.6756 32.8195 37.4095C34.3622 36.2007 35.7488 34.6355 36.9791 32.7137ZM29.1983 34.6851C29.5092 35.705 29.9744 36.8544 30.5942 38.1332C28.0332 39.7465 25.4763 40.5987 22.9233 40.6898C21.0176 40.7578 19.1815 40.406 17.4151 39.6345C15.6487 38.8629 14.1287 37.7512 12.855 36.2993C11.8436 35.1449 11.0225 33.7689 10.3919 32.1713C9.77329 30.5733 9.43696 28.9837 9.38292 27.4023C9.27904 24.3623 9.89894 21.9591 11.2426 20.1929C12.5983 18.4262 14.5286 17.4982 17.0336 17.4088C19.4308 17.3233 21.4657 18.2264 23.1384 20.1182C24.8107 21.9977 26.2896 25.0684 27.5753 29.3305L29.1983 34.6851Z" fill="#DCB04B"/>
</svg>
